<svg xmlns="http://www.w3.org/2000/svg" width="878.278" height="183.146" viewBox="0 0 878.278 183.146"><path fill="#5EA9DD" d="M182.14 94.168c0-8.38-1.243-15.724-3.732-22.04-2.488-6.312-5.798-11.565-9.928-15.755-4.127-4.19-8.862-7.346-14.206-9.47-5.343-2.126-10.807-3.19-16.393-3.19-13.114 0-23.342 4.07-30.69 12.205-7.347 8.138-11.02 20.28-11.02 36.43 0 1.214.03 2.58.09 4.097.062 1.52.153 2.887.272 4.1h62.84c-.606 7.65-3.307 13.57-8.105 17.758-4.795 4.19-11.748 6.285-20.856 6.285-5.34 0-10.227-.483-14.66-1.458-4.433-.97-7.924-2.003-10.474-3.096l-2.914 18.03c1.214.61 2.885 1.247 5.008 1.913 2.126.67 4.554 1.274 7.286 1.822 2.732.547 5.677 1 8.833 1.363 3.158.364 6.374.547 9.652.547 8.38 0 15.666-1.245 21.857-3.733 6.192-2.487 11.292-5.947 15.3-10.382 4.006-4.433 6.982-9.653 8.924-15.664 1.947-6.01 2.917-12.597 2.917-19.762zm-63.93-9.835c0-3.034.426-5.92 1.273-8.65.85-2.732 2.095-5.1 3.734-7.104 1.64-2.004 3.643-3.58 6.01-4.736 2.37-1.15 5.19-1.73 8.47-1.73 3.4 0 6.375.64 8.925 1.913s4.707 2.946 6.466 5.01c1.76 2.064 3.127 4.433 4.098 7.103.974 2.672 1.64 5.404 2.003 8.196h-40.98v-.003zM423.113 129.32c0 4.254-1.432 7.714-4.282 10.383-2.852 2.67-6.282 4.008-10.29 4.008-4.13 0-7.59-1.337-10.382-4.007-2.795-2.67-4.188-6.13-4.188-10.382 0-4.247 1.395-7.74 4.188-10.472 2.793-2.73 6.252-4.1 10.383-4.1 4.007 0 7.44 1.367 10.29 4.1 2.852 2.732 4.283 6.225 4.283 10.473zM589.772 169.485c0-4.13 1.334-7.406 4.004-9.835 2.674-2.43 5.828-3.644 9.473-3.644 3.765 0 6.983 1.213 9.65 3.644 2.675 2.43 4.01 5.705 4.01 9.835 0 4.248-1.335 7.587-4.01 10.02-2.667 2.428-5.888 3.643-9.65 3.643-3.646 0-6.8-1.215-9.474-3.644-2.67-2.432-4.004-5.77-4.004-10.02zm2.365-123.13h22.04v95.262h-22.04v-95.26z"/><g fill="#333"><path d="M71.217 56.19c-3.036-3.825-7.075-6.8-12.113-8.924-5.04-2.124-11.383-3.188-19.032-3.188-3.16 0-6.346.304-9.562.912-3.22.608-6.043 1.336-8.47 2.184V0L0 3.643v137.7h22.04v-75.77c1.456-.484 3.702-1.03 6.74-1.64 3.032-.605 6.01-.91 8.923-.91 3.764 0 6.923.516 9.472 1.547 2.55 1.033 4.582 2.673 6.103 4.918 1.516 2.248 2.61 5.162 3.278 8.743.665 3.584 1 7.924 1 13.023v50.09h22.04v-53.55c0-6.558-.638-12.507-1.913-17.852-1.275-5.34-3.433-9.924-6.466-13.75zM225.49 160.336c-1.092-1.276-1.852-2.825-2.276-4.645-.426-1.82-.638-4.067-.638-6.737V0l-22.04 3.644v149.498c0 4.734.516 8.957 1.548 12.66 1.03 3.703 2.825 6.8 5.374 9.287 2.55 2.49 5.98 4.4 10.292 5.736 4.308 1.336 9.744 2.063 16.3 2.186l3.098-18.214c-2.914-.362-5.313-.88-7.195-1.548-1.884-.667-3.37-1.64-4.463-2.914zM352.81 46.082h22.04v95.263h-22.04zM363.738 4.552c-3.766 0-6.985 1.216-9.655 3.644-2.672 2.43-4.007 5.77-4.007 10.018 0 4.13 1.336 7.408 4.007 9.835 2.67 2.43 5.89 3.643 9.655 3.643 3.642 0 6.797-1.212 9.47-3.644 2.67-2.428 4.007-5.706 4.007-9.836 0-4.25-1.337-7.588-4.007-10.018-2.673-2.428-5.828-3.644-9.47-3.644zM515.64 57.376c-4.005-4.372-8.833-7.742-14.48-10.108-5.645-2.37-11.81-3.553-18.485-3.553-6.68 0-12.812 1.184-18.396 3.553-5.587 2.366-10.415 5.736-14.48 10.108-4.07 4.37-7.228 9.625-9.472 15.755-2.25 6.135-3.37 12.964-3.37 20.492 0 7.53 1.12 14.39 3.37 20.582 2.244 6.195 5.37 11.478 9.38 15.85 4.007 4.368 8.802 7.77 14.39 10.198 5.582 2.428 11.775 3.643 18.578 3.643 6.8 0 13.023-1.215 18.67-3.643 5.646-2.427 10.473-5.83 14.48-10.2 4.008-4.37 7.102-9.653 9.287-15.848 2.188-6.193 3.28-13.052 3.28-20.582 0-7.528-1.124-14.358-3.37-20.49-2.25-6.13-5.374-11.385-9.382-15.756zm-15.936 59.015c-4.07 5.586-9.744 8.38-17.03 8.38-7.286 0-12.966-2.794-17.028-8.38-4.072-5.583-6.105-13.175-6.105-22.77 0-9.47 2.034-16.967 6.106-22.494 4.062-5.523 9.742-8.288 17.03-8.288 7.284 0 12.958 2.765 17.028 8.288 4.068 5.527 6.102 13.024 6.102 22.495 0 9.595-2.034 17.187-6.102 22.77zM557.713 4.552c-3.766 0-6.984 1.216-9.654 3.644-2.673 2.43-4.007 5.77-4.007 10.018 0 4.13 1.334 7.408 4.006 9.835 2.67 2.43 5.886 3.643 9.653 3.643 3.645 0 6.797-1.212 9.473-3.644 2.67-2.428 4.006-5.706 4.006-9.836 0-4.25-1.336-7.588-4.006-10.018-2.676-2.428-5.828-3.644-9.473-3.644zM546.786 46.082h22.04v95.263h-22.04zM693.858 96.992c-2.367-2.367-5.37-4.49-9.016-6.375-3.64-1.88-8.076-3.794-13.297-5.738-3.158-1.093-5.828-2.154-8.014-3.188-2.185-1.03-3.948-2.063-5.278-3.096-1.34-1.03-2.28-2.155-2.826-3.37-.547-1.213-.818-2.61-.818-4.19 0-3.156 1.396-5.492 4.188-7.012 2.793-1.518 6.438-2.277 10.932-2.277 4.977 0 9.35.456 13.115 1.366 3.762.91 6.857 1.913 9.287 3.006l4.008-17.852c-2.55-.97-6.375-1.973-11.477-3.006-5.097-1.03-10.444-1.548-16.026-1.548-11.053 0-19.793 2.522-26.23 7.56-6.437 5.04-9.65 11.93-9.65 20.673 0 4.494.694 8.288 2.093 11.384 1.395 3.098 3.307 5.738 5.738 7.924 2.426 2.187 5.31 4.1 8.65 5.737 3.338 1.64 7.014 3.188 11.02 4.646 6.557 2.43 11.264 4.677 14.12 6.74 2.847 2.065 4.278 4.675 4.278 7.83 0 3.403-1.34 5.8-4.008 7.196-2.672 1.396-6.922 2.095-12.75 2.095-5.83 0-11.02-.606-15.574-1.818-4.554-1.217-8.47-2.49-11.747-3.828l-3.826 18.396c2.064.85 5.646 1.975 10.748 3.37 5.1 1.395 11.84 2.094 20.215 2.094 12.506 0 22.133-2.34 28.87-7.013 6.74-4.675 10.11-11.568 10.11-20.675 0-4.25-.545-7.893-1.64-10.928-1.092-3.033-2.823-5.737-5.192-8.105zM778.737 54.097c-2.98-3.28-6.953-5.83-11.932-7.65s-11.11-2.732-18.396-2.732c-6.075 0-11.778.486-17.124 1.457-5.344.975-9.41 1.943-12.203 2.914l2.732 17.852c2.67-.97 6.133-1.82 10.38-2.55 4.25-.73 8.927-1.094 14.026-1.094 3.767 0 6.892.486 9.384 1.457 2.486.975 4.488 2.34 6.01 4.1 1.516 1.762 2.578 3.796 3.188 6.102.605 2.308.91 4.736.91 7.286v3.642c-3.04-.728-5.89-1.244-8.56-1.548-2.673-.302-5.224-.455-7.653-.455-5.222 0-10.23.52-15.026 1.548-4.8 1.033-9.014 2.732-12.658 5.1-3.643 2.37-6.527 5.436-8.65 9.2-2.127 3.764-3.19 8.38-3.19 13.84 0 5.712.94 10.507 2.825 14.39 1.882 3.89 4.49 7.044 7.833 9.475 3.338 2.428 7.377 4.188 12.113 5.28 4.734 1.095 9.955 1.64 15.664 1.64 8.62 0 16.363-.52 23.223-1.547 6.86-1.032 11.99-1.914 15.393-2.642V81.42c0-5.583-.64-10.714-1.912-15.39-1.276-4.675-3.403-8.654-6.377-11.933zm-13.024 70.672c-3.525.727-8.684 1.09-15.482 1.09-5.585 0-10.02-1.003-13.294-3.007-3.28-2.002-4.918-5.614-4.918-10.835 0-2.67.605-4.888 1.82-6.65 1.21-1.758 2.822-3.124 4.826-4.097 2.004-.97 4.25-1.64 6.738-2.003 2.488-.364 4.947-.548 7.377-.548 2.792 0 5.34.183 7.65.547 2.304.363 4.065.728 5.282 1.093v24.41zM875.182 120.76c-2.674 1.094-5.828 2.005-9.473 2.73-3.642.73-7.35 1.096-11.11 1.096-10.08 0-17.244-2.762-21.492-8.29-4.252-5.52-6.375-13.02-6.375-22.493 0-9.835 2.244-17.453 6.738-22.858 4.49-5.4 11.05-8.105 19.673-8.105 3.643 0 7.072.365 10.29 1.094s6.103 1.64 8.653 2.73l4.734-18.03c-8.014-3.278-16.516-4.918-25.5-4.918-7.287 0-13.842 1.275-19.67 3.824-5.828 2.55-10.78 6.073-14.848 10.565-4.068 4.494-7.19 9.808-9.38 15.937-2.185 6.134-3.276 12.723-3.276 19.764 0 7.165.97 13.814 2.912 19.94 1.94 6.137 4.887 11.417 8.834 15.85 3.943 4.435 8.928 7.895 14.936 10.382 6.012 2.488 13.086 3.733 21.22 3.733 5.222 0 10.294-.483 15.21-1.456 4.92-.97 8.588-2.062 11.02-3.28l-3.096-18.214zM292.337 44.078c-7.407 0-14.024 1.156-19.852 3.46-5.83 2.31-10.778 5.528-14.845 9.653-4.07 4.13-7.167 9.107-9.29 14.938-2.126 5.828-3.188 12.204-3.188 19.125 0 7.408 1 13.935 3.005 19.58 2.004 5.646 4.795 10.354 8.38 14.117 3.578 3.766 7.89 6.62 12.93 8.562 5.038 1.943 10.593 2.915 16.668 2.915 4.612 0 8.71-.548 12.294-1.64 3.578-1.094 6.463-2.19 8.65-3.28v17.446c0 2.67-.21 4.916-.637 6.738-.424 1.82-1.184 3.37-2.276 4.646-1.093 1.275-2.58 2.247-4.463 2.914-1.882.67-4.28 1.186-7.195 1.548l3.096 18.214c6.557-.122 11.993-.85 16.3-2.186 4.313-1.335 7.742-3.246 10.293-5.737 2.548-2.487 4.342-5.585 5.373-9.29 1.032-3.7 1.547-7.924 1.547-12.658V49.18c-4.494-1.214-9.958-2.368-16.392-3.463-6.437-1.092-13.237-1.64-20.4-1.64zm14.754 69.215c-1.943 1.338-4.463 2.492-7.558 3.46-3.097.975-6.406 1.46-9.928 1.46-6.438 0-11.69-2.156-15.754-6.468-4.07-4.31-6.104-11.14-6.104-20.49 0-8.62 2.125-15.573 6.375-20.855s10.384-7.923 18.398-7.923c3.52 0 6.434.152 8.742.455 2.307.305 4.25.637 5.83 1.002v49.36z"/></g></svg>